<?xml version="1.0" standalone="no"?>
<!DOCTYPE svg PUBLIC "-//W3C//DTD SVG 20010904//EN"
 "http://www.w3.org/TR/2001/REC-SVG-20010904/DTD/svg10.dtd">
<svg version="1.0" xmlns="http://www.w3.org/2000/svg"
 width="1600.000000pt" height="1600.000000pt" viewBox="0 0 1600.000000 1600.000000"
 preserveAspectRatio="xMidYMid meet">
<metadata>
Created by potrace 1.14, written by Peter Selinger 2001-2017
</metadata>
<g transform="translate(0.000000,1600.000000) scale(0.100000,-0.100000)"
fill="#000000" stroke="none">
<path d="M2369 13996 c-2 -2 -32 -7 -67 -10 -92 -10 -274 -59 -372 -101 -197
-84 -332 -176 -480 -324 -124 -125 -129 -131 -201 -241 -128 -194 -206 -403
-237 -630 -4 -30 -7 -1250 -7 -2710 0 -2463 1 -2661 17 -2735 9 -44 19 -91 22
-105 23 -108 116 -326 184 -430 85 -130 226 -289 333 -376 170 -138 432 -262
639 -303 30 -6 69 -14 85 -18 17 -4 406 -8 865 -10 459 -2 837 -8 840 -13 3
-4 5 -451 4 -992 -1 -540 1 -986 3 -990 2 -4 14 1 26 12 16 13 1258 946 1472
1104 38 29 460 346 485 365 14 10 95 71 180 135 85 64 166 124 180 135 14 10
59 44 100 75 41 30 80 59 85 63 6 5 39 30 73 56 l64 47 1441 0 c793 1 1469 3
1502 5 54 3 135 15 220 31 109 20 338 113 443 180 29 19 56 34 61 34 5 0 11 3
13 8 2 4 37 33 79 65 84 63 198 178 270 272 81 106 129 191 209 370 12 27 49
146 55 174 2 12 6 30 9 39 7 22 15 71 26 152 5 36 8 1255 6 2710 -2 2948 4
2686 -71 2919 -74 228 -193 421 -369 596 -241 241 -512 378 -846 429 -82 13
-593 15 -3716 15 -1991 1 -3623 -1 -3625 -3z m7232 -1006 c85 -16 192 -73 255
-138 62 -63 119 -169 134 -247 6 -31 9 -1027 9 -2605 1 -2813 5 -2618 -61
-2742 -65 -122 -204 -222 -342 -247 -41 -8 -569 -11 -1664 -11 l-1605 0 -151
-112 c-83 -62 -160 -121 -171 -130 -11 -9 -43 -34 -72 -55 -28 -21 -64 -47
-79 -58 -69 -51 -531 -397 -544 -408 -8 -7 -58 -43 -110 -82 -52 -38 -116 -86
-141 -107 -26 -21 -51 -38 -56 -38 -5 0 -9 209 -9 493 l0 492 -1299 5 c-1381
6 -1324 4 -1420 53 -133 67 -237 202 -264 342 -14 67 -14 5141 -1 5210 25 130
129 270 248 333 123 66 -181 61 3728 61 2338 1 3580 -2 3615 -9z"/>
<path d="M12000 10501 l0 -501 768 0 c422 -1 785 -3 807 -6 147 -19 293 -121
363 -252 66 -124 62 71 62 -2742 0 -2812 4 -2618 -62 -2741 -72 -137 -207
-227 -383 -258 -3 -1 -578 -1 -1277 -1 l-1273 0 0 -495 c1 -419 -1 -495 -13
-490 -11 4 -920 682 -982 732 -8 7 -88 67 -177 133 l-162 120 -1614 0 c-1549
0 -1616 1 -1685 19 -121 32 -234 118 -299 229 l-25 43 -32 -24 c-17 -13 -94
-70 -171 -128 -77 -57 -145 -108 -151 -114 -7 -5 -111 -84 -233 -173 l-220
-164 56 -76 c54 -74 216 -243 278 -290 242 -183 536 -299 801 -316 38 -3 720
-5 1515 -5 l1446 -1 149 -111 c166 -124 176 -131 255 -192 30 -23 68 -51 83
-62 42 -30 160 -118 171 -128 6 -4 304 -228 664 -497 359 -269 665 -499 680
-510 21 -16 287 -215 401 -300 14 -10 76 -57 138 -104 62 -47 117 -86 121 -86
4 0 7 448 6 995 l0 995 795 1 c437 0 818 3 845 5 285 26 596 160 825 356 257
220 425 505 503 853 l22 100 0 2685 0 2685 -22 101 c-53 238 -160 471 -296
641 -56 71 -240 244 -312 294 -179 125 -408 223 -595 255 -25 4 -54 9 -65 12
-11 2 -399 6 -862 9 l-843 4 0 -500z"/>
</g>
</svg>
